<svg version="1.1" id="Layer_1" xmlns="http://www.w3.org/2000/svg" xmlns:xlink="http://www.w3.org/1999/xlink" x="0px" y="0px"
	 width="100%" viewBox="0 0 193 193" enable-background="new 0 0 193 193" xml:space="preserve">
<path fill="#FEFEFE" opacity="1.000000" stroke="none" 
	d="
M118.000000,194.000000 
	C79.857735,194.000000 42.215385,193.968033 4.573376,194.065552 
	C1.802837,194.072754 0.894244,193.772354 0.901099,190.577530 
	C1.034397,128.451431 1.026258,66.324913 0.916548,4.198711 
	C0.911469,1.322466 1.629627,0.926270 4.297327,0.930148 
	C66.423592,1.020451 128.550049,1.018904 190.676315,0.934136 
	C193.289368,0.930571 194.092102,1.239454 194.086716,4.172351 
	C193.972260,66.465088 193.979340,128.758118 194.072006,191.050934 
	C194.075897,193.670486 193.332016,194.064560 190.952621,194.055603 
	C166.802032,193.964539 142.650940,194.000000 118.000000,194.000000 
z"/>
<path fill="#FEFAF9" opacity="1.000000" stroke="none" 
	d="
M127.101799,52.715107 
	C126.239784,52.820587 125.749702,52.633980 125.126480,52.213104 
	C123.515839,49.390690 121.499847,48.686234 118.422508,49.063034 
	C108.469032,50.281769 98.447144,50.924282 88.261703,52.736015 
	C87.618088,53.933842 86.998146,54.606884 85.742630,54.958366 
	C83.514587,54.065144 84.060684,52.233047 84.037636,50.702709 
	C83.959106,45.488113 83.989014,40.271709 84.031570,34.610191 
	C85.928604,18.461653 97.607361,12.156271 112.957108,15.212143 
	C121.078728,16.829016 125.826462,22.294008 128.073196,30.591831 
	C128.300522,38.170540 129.480637,45.349949 127.101799,52.715107 
z"/>
<path fill="#DD6031" opacity="1.000000" stroke="none" 
	d="
M161.838165,83.110596 
	C161.592911,82.133072 161.394638,81.420761 161.198700,80.334518 
	C161.086792,79.432251 160.986404,78.900970 160.809418,78.109665 
	C158.442947,69.918724 155.757874,62.149292 151.837097,54.832069 
	C150.668854,52.651817 149.289673,51.730297 146.794144,51.843712 
	C142.181290,52.053349 137.554977,51.967232 132.465576,52.006165 
	C130.367996,49.663334 130.380020,47.647072 133.603638,46.152752 
	C136.743423,45.965004 139.441864,45.809769 142.551682,45.473656 
	C143.414352,45.184147 143.871613,45.112854 144.681488,45.080482 
	C147.732376,44.943153 150.435760,44.798946 153.551102,44.473759 
	C154.414352,44.184147 154.871613,44.112854 155.681488,44.080475 
	C158.987259,43.720268 160.729065,44.823860 162.185562,47.653946 
	C166.188171,55.431343 168.586655,63.660160 170.365738,72.567879 
	C170.684647,73.396416 170.825943,73.843079 170.962219,74.651794 
	C171.088531,76.388412 171.184525,77.774307 171.394592,79.561874 
	C171.864807,80.738876 171.996582,81.554863 171.933929,82.715546 
	C172.116806,91.703293 172.440262,100.378860 171.900635,109.518120 
	C171.950043,110.449425 171.907913,110.910866 171.730286,111.704041 
	C171.413956,113.741241 171.190750,115.442841 170.995468,117.575912 
	C170.987823,118.470863 170.915237,118.928307 170.688568,119.708527 
	C167.694443,134.743042 163.559799,149.024918 156.315018,162.256088 
	C155.763397,163.263535 155.236801,164.285995 154.649170,165.272049 
	C154.181076,166.057510 153.448547,166.510406 152.588928,166.006210 
	C151.638794,165.448898 152.191193,164.763321 152.462097,163.942291 
	C155.568237,154.528442 158.682526,145.111832 160.462448,135.326065 
	C160.788651,133.532654 161.096802,131.735947 161.567230,129.548492 
	C161.838623,128.625809 161.977890,128.099930 162.091827,127.291809 
	C162.279572,125.329460 162.429749,123.636253 162.731110,121.548538 
	C162.938309,120.620743 163.003860,120.088593 163.114166,119.291939 
	C163.268463,115.026726 163.382233,111.026520 163.621429,106.592239 
	C163.870789,105.585831 163.956299,105.010513 163.833191,104.134842 
	C163.252991,97.832489 162.721130,91.818054 162.196869,85.381783 
	C162.089371,84.433647 161.992889,83.903595 161.838165,83.110596 
z"/>
<path fill="#76464C" opacity="1.000000" stroke="none" 
	d="
M70.733162,96.804398 
	C67.482666,96.907234 66.079086,98.087067 66.273117,101.109291 
	C66.464272,104.086624 66.316757,107.086021 66.307648,110.075706 
	C66.304565,111.086823 66.326118,112.168732 64.868080,112.135956 
	C63.558128,112.106514 63.286625,111.221840 63.293037,110.107834 
	C63.308331,107.450432 63.301678,104.792809 63.287899,102.135368 
	C63.277023,100.038147 63.830830,97.746330 60.417709,97.551353 
	C58.957630,97.467949 58.586815,95.392853 59.992603,95.299416 
	C63.458797,95.069046 63.438103,93.078453 63.317650,90.641548 
	C63.266941,89.615646 63.427273,88.481033 64.679970,88.355980 
	C66.482765,88.176018 66.496368,89.718224 66.256256,90.749802 
	C65.234833,95.138260 68.768959,95.539101 71.170448,95.523163 
	C73.411041,95.508286 77.096199,95.388908 76.142494,90.968552 
	C75.925179,89.961342 75.825249,88.394684 77.573891,88.367058 
	C79.276230,88.340179 79.189667,89.770447 79.141670,90.901726 
	C79.044678,93.187592 78.953728,95.177658 82.268814,95.136475 
	C83.506538,95.121094 83.508728,97.119095 82.635231,97.266205 
	C76.944328,98.224648 79.954742,102.621826 79.161232,105.491379 
	C78.556633,107.677795 80.551788,111.846367 77.780396,111.778549 
	C74.107849,111.688683 76.928406,107.504410 76.111214,105.280167 
	C75.949921,104.841141 76.013351,104.278778 76.099724,103.795952 
	C76.816177,99.791115 75.534805,97.196632 70.733162,96.804398 
z"/>
<path fill="#734249" opacity="1.000000" stroke="none" 
	d="
M136.797394,111.547897 
	C132.208481,113.443054 128.549255,112.649994 125.966499,108.805679 
	C123.464996,105.082306 123.664314,101.157303 126.501816,97.726303 
	C129.433823,94.181015 133.153137,93.658028 137.194611,95.963623 
	C137.481964,96.127548 137.866425,96.526329 138.027557,96.448242 
	C145.488846,92.832336 141.147629,99.472702 142.009186,101.291748 
	C142.651291,102.647453 142.135986,104.551460 142.135651,106.211281 
	C142.134476,111.986420 142.134399,111.986420 136.797394,111.547897 
z"/>
<path fill="#724147" opacity="1.000000" stroke="none" 
	d="
M33.087761,108.023315 
	C35.961796,110.303589 38.897980,110.372742 41.888481,109.573555 
	C43.754700,109.074829 45.171108,107.949829 45.362976,105.812332 
	C45.554443,103.679276 44.462067,102.268806 42.596279,101.572037 
	C39.958614,100.587013 37.197517,99.927269 34.575699,98.906296 
	C30.805702,97.438217 28.270294,95.047585 29.630083,90.528442 
	C30.648664,87.143280 35.922947,84.437164 39.406517,85.368706 
	C40.257683,85.596321 41.089088,85.900848 41.006371,86.890945 
	C40.913177,88.006500 39.914154,87.860542 39.105225,87.912132 
	C37.947853,87.985954 36.762001,87.966843 35.644291,88.227486 
	C33.895100,88.635368 32.666912,89.795128 32.378029,91.593140 
	C32.075001,93.479233 33.110439,94.918571 34.743767,95.571289 
	C37.509235,96.676437 40.412449,97.431068 43.218998,98.440788 
	C46.440506,99.599800 48.705875,101.584206 48.522808,105.374847 
	C48.332718,109.310844 45.926479,111.399078 42.375221,112.197762 
	C38.008015,113.179962 33.726364,113.091309 30.362204,109.524940 
	C29.551987,108.666023 28.158932,107.350281 29.720053,106.230988 
	C31.106451,105.236954 32.118011,106.516342 33.087761,108.023315 
z"/>
<path fill="#E5805A" opacity="1.000000" stroke="none" 
	d="
M127.235100,30.185219 
	C121.857368,18.092646 112.999420,13.352221 100.233932,16.176302 
	C91.649445,18.075428 87.061920,23.969065 85.295135,32.721775 
	C84.690964,33.397869 84.195511,33.533546 83.305229,33.218643 
	C83.735764,21.778805 91.670509,13.717319 102.679344,12.973137 
	C117.139328,11.995664 124.453918,16.242001 129.026352,28.622700 
	C128.809586,29.724844 128.288315,30.144550 127.235100,30.185219 
z"/>
<path fill="#78494F" opacity="1.000000" stroke="none" 
	d="
M96.719231,95.534737 
	C102.270622,93.688797 107.551888,97.131096 112.963280,94.825676 
	C116.418533,93.353630 119.766563,96.037384 120.176262,100.167328 
	C120.469780,103.126083 120.267944,106.133980 120.172340,109.547043 
	C119.926460,110.142738 119.795357,110.311333 119.844208,110.744980 
	C118.168579,113.355217 117.470428,112.150513 117.361420,110.041405 
	C117.224609,107.394287 117.356171,104.734428 117.281891,102.082588 
	C117.224213,100.023117 116.940338,97.747276 114.326576,97.694481 
	C111.632988,97.640076 110.096504,99.388229 109.994415,102.128838 
	C109.908020,104.447891 110.000160,106.773239 109.934196,109.093559 
	C109.898941,110.333519 110.287819,112.082893 108.244926,111.983665 
	C106.568024,111.902206 106.963242,110.340042 106.932709,109.268486 
	C106.866615,106.948219 106.948463,104.623688 106.880020,102.303558 
	C106.819534,100.252876 106.560936,98.011436 104.059982,97.703804 
	C101.310760,97.365631 99.649353,99.255722 99.200577,101.710396 
	C98.728485,104.292526 98.896988,106.986855 98.677246,109.623123 
	C98.613556,110.387276 98.177399,111.120399 97.456078,111.903358 
	C95.104431,106.660248 96.026245,101.282547 96.719231,95.534737 
z"/>
<path fill="#E37146" opacity="1.000000" stroke="none" 
	d="
M88.435303,53.013954 
	C87.305809,51.874283 86.812012,51.144066 88.926056,50.939129 
	C98.585564,50.002766 108.225716,48.866592 117.872520,47.799473 
	C119.027779,47.671684 120.200447,47.616779 121.331810,47.373531 
	C124.590347,46.672943 125.624832,48.098846 125.037521,51.558983 
	C115.969131,52.045113 106.944923,52.111382 97.464096,52.283150 
	C96.590645,52.609840 96.155228,52.785587 95.353294,52.964806 
	C92.959641,53.010769 90.916389,53.013874 88.435303,53.013954 
z"/>
<path fill="#E77D56" opacity="1.000000" stroke="none" 
	d="
M126.912079,30.504362 
	C127.439064,29.761845 127.964333,29.485252 128.765244,29.097073 
	C130.709137,33.934860 129.451035,39.051991 129.978790,44.531879 
	C131.604599,47.304184 131.052261,49.763103 130.304169,52.612259 
	C129.803864,55.493813 129.596008,57.966072 130.503342,60.397633 
	C130.951035,61.597401 130.661133,62.709671 129.557388,63.472939 
	C128.622040,64.119751 127.663506,64.017502 126.810211,63.311481 
	C125.797508,62.473553 125.439888,61.354183 126.090263,60.199696 
	C127.233971,58.169498 126.905663,56.007641 126.811409,53.434429 
	C126.790031,45.661564 126.850197,38.315926 126.912079,30.504362 
z"/>
<path fill="#DF7046" opacity="1.000000" stroke="none" 
	d="
M82.896469,33.458839 
	C83.451019,32.992523 83.929550,32.990265 84.766212,33.011742 
	C85.167671,40.053001 85.211006,47.070526 85.358063,54.546638 
	C84.263710,57.639874 86.484871,59.909435 86.167557,62.866516 
	C85.581795,63.532211 85.126823,63.858410 84.324554,64.091911 
	C81.666451,63.203880 81.090492,61.920353 82.002869,59.197788 
	C83.824097,53.763176 82.467842,48.014267 82.756065,42.406982 
	C82.901093,39.585300 82.806625,36.751316 82.896469,33.458839 
z"/>
<path fill="#673239" opacity="1.000000" stroke="none" 
	d="
M55.613014,102.126266 
	C55.611008,104.904915 55.652374,107.220535 55.587986,109.533218 
	C55.558289,110.599693 55.886688,112.088776 54.064018,112.009415 
	C52.663090,111.948418 52.784988,110.761856 52.781185,109.801331 
	C52.764805,105.668510 52.763065,101.535500 52.788410,97.402756 
	C52.794346,96.434395 52.740879,95.275719 54.104313,95.168335 
	C55.546036,95.054787 55.541954,96.239281 55.583801,97.199265 
	C55.648540,98.684464 55.608658,100.174210 55.613014,102.126266 
z"/>
<path fill="#784950" opacity="1.000000" stroke="none" 
	d="
M86.946457,98.316391 
	C87.089569,96.789696 86.611763,95.293030 88.268051,95.126389 
	C89.921814,94.959991 89.974731,96.320419 89.979813,97.498024 
	C89.997612,101.624092 89.992294,105.750305 89.980453,109.876419 
	C89.977531,110.891731 89.874031,111.985756 88.577957,112.070999 
	C86.828606,112.186043 86.965477,110.810036 86.958733,109.672371 
	C86.937225,106.041420 86.947266,102.410294 86.946457,98.316391 
z"/>
<path fill="#EDAE97" opacity="1.000000" stroke="none" 
	d="
M135.389740,132.926788 
	C134.310196,133.487534 133.567245,134.088806 132.378601,135.050781 
	C131.507629,132.079773 133.217133,129.868179 133.399643,126.619476 
	C135.794952,129.092682 138.028473,131.569122 139.520828,126.073608 
	C141.098312,129.250107 141.935287,131.720154 141.563522,134.508194 
	C139.329193,134.994431 140.384583,132.238174 138.542572,132.127869 
	C137.463028,132.606720 136.716904,133.128555 135.389740,132.926788 
z"/>
<path fill="#FDF8F6" opacity="1.000000" stroke="none" 
	d="
M72.009689,132.898804 
	C71.127861,136.623947 68.892357,136.381348 66.180756,135.167267 
	C64.603729,128.584229 64.869255,128.037399 69.944672,127.783524 
	C70.358368,128.036407 70.466461,127.985474 70.523727,127.968452 
	C72.575233,128.981506 71.764450,130.892685 72.009689,132.898804 
z"/>
<path fill="#FCF1ED" opacity="1.000000" stroke="none" 
	d="
M117.163681,129.134705 
	C118.323578,125.179443 120.941292,126.655319 123.307831,127.334991 
	C126.208260,128.167999 126.554901,130.465149 125.811600,132.802109 
	C124.836472,135.867950 122.481323,136.626190 119.404350,135.007568 
	C120.077438,133.199966 121.757294,132.773636 122.167938,131.202744 
	C121.292030,129.860107 119.809311,130.369125 118.304695,129.879761 
	C117.766556,129.661438 117.564148,129.543289 117.163681,129.134705 
z"/>
<path fill="#78494F" opacity="1.000000" stroke="none" 
	d="
M96.636017,95.213959 
	C97.000488,100.435280 97.000061,105.723854 96.999901,111.475708 
	C94.418747,106.488731 95.874550,100.861794 96.636017,95.213959 
z"/>
<path fill="#EEB5A0" opacity="1.000000" stroke="none" 
	d="
M54.831131,128.016602 
	C57.623676,128.881592 57.400913,131.062119 56.664249,132.876129 
	C55.796593,135.012711 53.976379,136.189560 51.239738,135.053406 
	C50.915146,134.588669 50.800179,134.389557 50.861313,133.894714 
	C52.581791,132.621933 53.843395,131.441818 54.104923,129.142273 
	C54.322094,128.615601 54.436756,128.416626 54.831131,128.016602 
z"/>
<path fill="#F2C9B9" opacity="1.000000" stroke="none" 
	d="
M80.680161,52.185036 
	C77.704498,53.562733 74.913940,52.826546 72.106606,52.533951 
	C74.949776,51.165756 77.756401,49.550385 80.680161,52.185036 
z"/>
<path fill="#F0BCA9" opacity="1.000000" stroke="none" 
	d="
M70.196899,127.699959 
	C65.548073,127.589859 65.696884,130.794174 65.944626,134.467422 
	C64.923622,134.389938 64.098785,133.810425 65.010231,132.252350 
	C64.563133,131.636978 64.237457,131.161041 64.095970,130.259598 
	C65.078621,126.824684 66.397652,124.441673 70.196899,127.699959 
z"/>
<path fill="#FCF1ED" opacity="1.000000" stroke="none" 
	d="
M130.342407,52.987591 
	C129.986694,50.626854 129.923462,48.247116 129.956085,45.430099 
	C131.237259,45.175327 132.422592,45.357830 133.826462,45.830284 
	C131.521133,47.047150 131.407730,49.011032 131.925003,51.611664 
	C131.542892,52.328205 131.088882,52.648396 130.342407,52.987591 
z"/>
<path fill="#EDB099" opacity="1.000000" stroke="none" 
	d="
M102.901970,131.002716 
	C102.808434,132.463638 104.371582,133.278976 103.324516,134.708572 
	C101.089088,133.523422 100.524338,131.640396 101.166878,129.430328 
	C101.745308,127.440758 103.087997,126.413261 105.378510,127.292542 
	C104.749184,128.595184 102.872711,128.932938 102.901970,131.002716 
z"/>
<path fill="#EAA287" opacity="1.000000" stroke="none" 
	d="
M54.911148,127.515854 
	C55.077003,128.022079 55.043159,128.228592 54.997913,128.748795 
	C52.889774,129.785751 52.105385,131.559525 51.247528,133.706024 
	C51.023586,133.958313 50.994534,134.374710 51.012321,134.581253 
	C48.798862,132.389786 49.602776,129.442245 50.451771,127.080551 
	C51.138214,125.171036 53.265583,126.422447 54.911148,127.515854 
z"/>
<path fill="#8F686D" opacity="1.000000" stroke="none" 
	d="
M54.682079,92.088699 
	C52.788445,92.081818 51.905876,91.309608 52.518250,89.688728 
	C52.902302,88.672203 53.946766,88.254028 54.911446,88.862740 
	C56.358158,89.775620 56.247978,90.915443 54.682079,92.088699 
z"/>
<path fill="#F0BAA6" opacity="1.000000" stroke="none" 
	d="
M81.133743,133.431091 
	C81.266769,131.176346 80.447960,129.200302 81.708420,127.415237 
	C83.889442,130.784805 83.664268,133.350571 81.133743,133.431091 
z"/>
<path fill="#EEB39D" opacity="1.000000" stroke="none" 
	d="
M116.725716,129.104584 
	C117.173668,128.868469 117.381706,128.892715 117.902985,128.941284 
	C119.334023,130.588715 119.937294,132.333130 119.263245,134.670135 
	C119.046471,135.012756 119.007347,135.002258 119.007965,135.024414 
	C116.753433,133.780624 115.307587,132.155350 116.725716,129.104584 
z"/>
<path fill="#F0BCA9" opacity="1.000000" stroke="none" 
	d="
M72.277283,133.018402 
	C70.576225,132.081238 71.230927,130.258545 70.665604,128.350983 
	C74.035583,128.387833 73.097992,130.628174 72.277283,133.018402 
z"/>
<path fill="#EDAF98" opacity="1.000000" stroke="none" 
	d="
M135.218491,133.165466 
	C135.663879,132.007797 136.577499,131.997650 137.856689,132.055069 
	C137.755066,133.545822 137.982681,136.417999 135.218491,133.165466 
z"/>
<path fill="#FCF1ED" opacity="1.000000" stroke="none" 
	d="
M172.173615,82.864258 
	C171.722809,82.215530 171.528351,81.403038 171.421265,80.277039 
	C173.064194,80.455597 173.303619,81.390694 172.173615,82.864258 
z"/>
<path fill="#FCF1ED" opacity="1.000000" stroke="none" 
	d="
M155.909241,43.863754 
	C155.510681,44.247128 154.992371,44.406902 154.218567,44.429726 
	C154.323792,43.380932 154.824219,42.860119 155.909241,43.863754 
z"/>
<path fill="#E58A68" opacity="1.000000" stroke="none" 
	d="
M161.925217,127.240097 
	C163.054123,127.655006 162.878616,128.302780 161.938873,129.057220 
	C161.721130,128.589981 161.721085,128.023758 161.925217,127.240097 
z"/>
<path fill="#E58A68" opacity="1.000000" stroke="none" 
	d="
M161.667114,83.115768 
	C162.588013,83.226219 163.045486,83.751808 162.388000,84.817337 
	C161.983994,84.435349 161.763519,83.910759 161.667114,83.115768 
z"/>
<path fill="#FDF8F6" opacity="1.000000" stroke="none" 
	d="
M63.843887,130.130508 
	C64.413040,130.436630 64.736572,130.910797 65.064430,131.688354 
	C64.143631,131.805084 62.877705,131.914413 63.843887,130.130508 
z"/>
<path fill="#E58A68" opacity="1.000000" stroke="none" 
	d="
M162.956451,119.250244 
	C164.037521,119.604050 163.911850,120.247307 163.080719,121.038925 
	C162.840942,120.593872 162.799561,120.033722 162.956451,119.250244 
z"/>
<path fill="#FCF1ED" opacity="1.000000" stroke="none" 
	d="
M170.821503,119.968590 
	C170.584930,119.489182 170.592697,118.940117 170.811935,118.199219 
	C171.970474,118.616974 172.037308,119.246307 170.821503,119.968590 
z"/>
<path fill="#FCF1ED" opacity="1.000000" stroke="none" 
	d="
M171.879333,111.961456 
	C171.616928,111.494652 171.596695,110.949677 171.763123,110.194397 
	C172.897049,110.536690 173.094437,111.157082 171.879333,111.961456 
z"/>
<path fill="#E58A68" opacity="1.000000" stroke="none" 
	d="
M163.644226,104.222000 
	C164.802048,104.396782 165.050201,105.080254 163.949677,106.060486 
	C163.665787,105.637794 163.584686,105.117439 163.644226,104.222000 
z"/>
<path fill="#FCF1ED" opacity="1.000000" stroke="none" 
	d="
M144.909241,44.863762 
	C144.510681,45.247135 143.992371,45.406906 143.218567,45.429726 
	C143.323761,44.380882 143.824219,43.860138 144.909241,44.863762 
z"/>
<path fill="#FEFAF9" opacity="1.000000" stroke="none" 
	d="
M95.149658,53.226265 
	C95.481583,52.741440 95.960281,52.475212 96.723221,52.298817 
	C96.784027,53.302696 96.519958,54.150928 95.149658,53.226265 
z"/>
<path fill="#FEFAF9" opacity="1.000000" stroke="none" 
	d="
M84.223022,64.357971 
	C84.537178,63.892445 85.018791,63.627087 85.789917,63.327065 
	C85.835251,64.139717 85.667694,65.089279 84.223022,64.357971 
z"/>
<path fill="#724147" opacity="1.000000" stroke="none" 
	d="
M46.170769,90.577705 
	C44.189777,91.271736 43.042515,90.202225 43.360104,88.711182 
	C43.662868,87.289734 45.021454,87.777054 46.129852,88.994278 
	C46.316746,89.672401 46.332130,89.942451 46.170769,90.577705 
z"/>
<path fill="#FCF1ED" opacity="1.000000" stroke="none" 
	d="
M171.214706,74.868256 
	C170.777191,74.504715 170.561859,74.006927 170.424377,73.236038 
	C171.429443,73.228409 172.152725,73.601479 171.214706,74.868256 
z"/>
<path fill="#E58A68" opacity="1.000000" stroke="none" 
	d="
M160.641617,78.118561 
	C161.568329,78.212532 162.044815,78.730087 161.385635,79.816086 
	C160.976440,79.437866 160.751877,78.915138 160.641617,78.118561 
z"/>
<path fill="#724147" opacity="1.000000" stroke="none" 
	d="
M41.852760,86.166199 
	C43.232765,86.546341 44.392494,86.610222 44.226395,87.902252 
	C44.122227,88.712524 43.394196,88.912872 42.819847,88.696075 
	C41.743534,88.289795 40.115391,88.067375 41.852760,86.166199 
z"/>
<path fill="#EDB099" opacity="1.000000" stroke="none" 
	d="
M106.203789,135.443680 
	C106.159912,135.567596 106.039497,135.601837 105.919067,135.636093 
	C105.988457,135.542068 106.057854,135.448044 106.203789,135.443680 
z"/>
<path fill="#591F27" opacity="1.000000" stroke="none" 
	d="
M120.091774,110.752960 
	C119.827362,110.831512 119.620941,110.661407 119.447388,110.462608 
	C119.428261,110.440681 119.597282,110.254501 119.868301,110.059319 
	C120.091515,110.148064 120.125458,110.321983 120.091774,110.752960 
z"/>
<path fill="#7E5158" opacity="1.000000" stroke="none" 
	d="
M46.296909,90.921501 
	C46.033691,90.684196 46.073364,90.425484 46.207199,89.784561 
	C46.799721,89.822121 47.124622,90.276451 46.296909,90.921501 
z"/>
<path fill="#F5F1F2" opacity="1.000000" stroke="none" 
	d="
M136.150024,98.461411 
	C138.795578,100.569435 139.755112,103.001762 138.608200,105.761528 
	C137.303497,108.901009 134.785828,110.431374 131.391922,109.219727 
	C128.146057,108.060913 126.589096,105.473320 127.599052,102.135086 
	C128.823288,98.088608 131.774368,96.810738 136.150024,98.461411 
z"/>
<path fill="#FEFEFE" opacity="1.000000" stroke="none" 
	d="
M119.388786,134.962753 
	C119.250740,133.166855 117.498756,131.666214 118.166702,129.356400 
	C120.348503,129.047607 123.516968,128.467316 124.068001,130.505112 
	C124.686760,132.793320 121.567841,133.736740 119.388786,134.962753 
z"/>
<path fill="#FEFEFE" opacity="1.000000" stroke="none" 
	d="
M51.403175,134.039368 
	C52.284286,132.429092 48.211445,127.431648 54.615360,129.034012 
	C55.104839,131.499847 55.106937,133.863586 51.403175,134.039368 
z"/>
</svg>